SplineFontDB: 3.2
FontName: MoonOceanL
FullName: Moon Ocean with Lowercase
FamilyName: MoonOceanL
Weight: Regular
Copyright: Copyright (c) 2025, Semi-Minus(33041)
UComments: "+dx96ejBrdu6JmjCBMIt1H2uLgAUwAnEhllAwboNSVzAwAgAKMGkwUzBLMGcwAXcfW58wkomLMGQwUTCJMIwwizBL/x8ACmcAfUIwbmCyUocA---------+ThZ9Qv8LZwhtd24JWXMACgAA-- +Jj0A -+AAoACgAA-Inspiration from+AAoA    the end of this world, and the girl who crossed the moon's oceans.+AAoA    by Frums, for Unisphere's album Grayscape+AAoACgAA-A Semi-Minus(33014) Project+AAoA-Also a challenge for myself+AAoACgAA-fonts Moon Ocean+AAoACgAA-TYPES:+AAoACgAA-- /+AAoA>L+AAoA-- NS+AAoA -LNS"
FontLog: "2025-11-28: Created with FontForge (http://fontforge.org)"
Version: 1.0
ItalicAngle: 0
UnderlinePosition: -120
UnderlineWidth: 60
Ascent: 1000
Descent: 200
InvalidEm: 0
LayerCount: 2
Layer: 0 0 "+gMxmbwAA" 1
Layer: 1 0 "+Uk1mbwAA" 0
XUID: [1021 279 -1965050599 14015]
FSType: 0
OS2Version: 0
OS2_WeightWidthSlopeOnly: 0
OS2_UseTypoMetrics: 1
CreationTime: 1764305796
ModificationTime: 1764337948
PfmFamily: 81
TTFWeight: 400
TTFWidth: 5
LineGap: 240
VLineGap: 0
OS2TypoAscent: 960
OS2TypoAOffset: 0
OS2TypoDescent: 240
OS2TypoDOffset: 0
OS2TypoLinegap: 240
OS2WinAscent: 960
OS2WinAOffset: 0
OS2WinDescent: 240
OS2WinDOffset: 0
HheadAscent: 960
HheadAOffset: 0
HheadDescent: 240
HheadDOffset: 0
OS2FamilyClass: 2319
OS2Vendor: 'PfEd'
MarkAttachClasses: 1
DEI: 91125
LangName: 1033
Encoding: ISO8859-1
UnicodeInterp: none
NameList: AGL For New Fonts
DisplaySize: -48
AntiAlias: 1
FitToEm: 0
WinInfo: 0 51 18
BeginPrivate: 0
EndPrivate
BeginChars: 256 96

StartChar: zero
Encoding: 48 48 0
Width: 1200
VWidth: 1000
Flags: HW
LayerCount: 2
Back
Fore
SplineSet
0 100 m 1
 0 400 l 1
 100 400 l 1
 200 400 l 1
 200 100 l 1
 200 -200 l 1
 100 -200 l 1
 0 -200 l 1
 0 100 l 1
400 300 m 1
 400 800 l 1
 700 800 l 1
 1000 800 l 1
 1000 300 l 1
 1000 -200 l 1
 700 -200 l 1
 400 -200 l 1
 400 300 l 1
800 300 m 1
 800 600 l 1
 700 600 l 1
 600 600 l 1
 600 300 l 1
 600 0 l 1
 700 0 l 1
 800 0 l 1
 800 300 l 1
0 700 m 1
 0 800 l 1
 100 800 l 1
 200 800 l 1
 200 700 l 1
 200 600 l 1
 100 600 l 1
 0 600 l 1
 0 700 l 1
EndSplineSet
Validated: 1
EndChar

StartChar: one
Encoding: 49 49 1
Width: 1200
VWidth: 1000
Flags: HW
LayerCount: 2
Back
Fore
SplineSet
400 200 m 1
 400 400 l 1
 500 400 l 1
 600 400 l 1
 600 100 l 1
 600 -200 l 1
 300 -200 l 1
 0 -200 l 1
 0 -100 l 1
 0 0 l 1
 200 0 l 1
 400 0 l 1
 400 200 l 1
800 300 m 1
 800 800 l 1
 900 800 l 1
 1000 800 l 1
 1000 300 l 1
 1000 -200 l 1
 900 -200 l 1
 800 -200 l 1
 800 300 l 1
0 500 m 1
 0 800 l 1
 300 800 l 1
 600 800 l 1
 600 700 l 1
 600 600 l 1
 400 600 l 1
 200 600 l 1
 200 400 l 1
 200 200 l 1
 100 200 l 1
 0 200 l 1
 0 500 l 1
EndSplineSet
Validated: 1
EndChar

StartChar: two
Encoding: 50 50 2
Width: 1200
VWidth: 1000
Flags: HW
LayerCount: 2
Back
Fore
SplineSet
0 100 m 1
 0 400 l 1
 100 400 l 1
 200 400 l 1
 200 100 l 1
 200 -200 l 1
 100 -200 l 1
 0 -200 l 1
 0 100 l 1
400 700 m 1
 400 800 l 1
 700 800 l 1
 1000 800 l 1
 1000 500 l 1
 1000 200 l 1
 800 200 l 1
 600 200 l 1
 600 100 l 1
 600 0 l 1
 800 0 l 1
 1000 0 l 1
 1000 -100 l 1
 1000 -200 l 1
 700 -200 l 1
 400 -200 l 1
 400 100 l 1
 400 400 l 1
 600 400 l 1
 800 400 l 1
 800 500 l 1
 800 600 l 1
 600 600 l 1
 400 600 l 1
 400 700 l 1
0 700 m 1
 0 800 l 1
 100 800 l 1
 200 800 l 1
 200 700 l 1
 200 600 l 1
 100 600 l 1
 0 600 l 1
 0 700 l 1
EndSplineSet
Validated: 1
EndChar

StartChar: three
Encoding: 51 51 3
Width: 1200
VWidth: 1000
Flags: HW
LayerCount: 2
Back
Fore
SplineSet
0 100 m 1
 0 400 l 1
 100 400 l 1
 200 400 l 1
 200 100 l 1
 200 -200 l 1
 100 -200 l 1
 0 -200 l 1
 0 100 l 1
400 700 m 1
 400 800 l 1
 700 800 l 1
 1000 800 l 1
 1000 300 l 1
 1000 -200 l 1
 700 -200 l 1
 400 -200 l 1
 400 -100 l 1
 400 0 l 1
 600 0 l 1
 800 0 l 1
 800 100 l 1
 800 200 l 1
 600 200 l 1
 400 200 l 1
 400 300 l 1
 400 400 l 1
 600 400 l 1
 800 400 l 1
 800 500 l 1
 800 600 l 1
 600 600 l 1
 400 600 l 1
 400 700 l 1
0 700 m 1
 0 800 l 1
 100 800 l 1
 200 800 l 1
 200 700 l 1
 200 600 l 1
 100 600 l 1
 0 600 l 1
 0 700 l 1
EndSplineSet
Validated: 1
EndChar

StartChar: four
Encoding: 52 52 4
Width: 1200
VWidth: 1000
Flags: HW
LayerCount: 2
Back
Fore
SplineSet
0 100 m 1
 0 400 l 1
 100 400 l 1
 200 400 l 1
 200 200 l 1
 200 0 l 1
 400 0 l 1
 600 0 l 1
 600 -100 l 1
 600 -200 l 1
 300 -200 l 1
 0 -200 l 1
 0 100 l 1
400 500 m 1
 400 800 l 1
 500 800 l 1
 600 800 l 1
 600 600 l 1
 600 400 l 1
 700 400 l 1
 800 400 l 1
 800 600 l 1
 800 800 l 1
 900 800 l 1
 1000 800 l 1
 1000 300 l 1
 1000 -200 l 1
 900 -200 l 1
 800 -200 l 1
 800 0 l 1
 800 200 l 1
 600 200 l 1
 400 200 l 1
 400 500 l 1
0 700 m 1
 0 800 l 1
 100 800 l 1
 200 800 l 1
 200 700 l 1
 200 600 l 1
 100 600 l 1
 0 600 l 1
 0 700 l 1
EndSplineSet
Validated: 1
EndChar

StartChar: five
Encoding: 53 53 5
Width: 1200
VWidth: 1000
Flags: HW
LayerCount: 2
Back
Fore
SplineSet
0 100 m 1
 0 400 l 1
 100 400 l 1
 200 400 l 1
 200 100 l 1
 200 -200 l 1
 100 -200 l 1
 0 -200 l 1
 0 100 l 1
400 500 m 1
 400 800 l 1
 700 800 l 1
 1000 800 l 1
 1000 700 l 1
 1000 600 l 1
 800 600 l 1
 600 600 l 1
 600 500 l 1
 600 400 l 1
 800 400 l 1
 1000 400 l 1
 1000 100 l 1
 1000 -200 l 1
 700 -200 l 1
 400 -200 l 1
 400 -100 l 1
 400 0 l 1
 600 0 l 1
 800 0 l 1
 800 100 l 1
 800 200 l 1
 600 200 l 1
 400 200 l 1
 400 500 l 1
0 700 m 1
 0 800 l 1
 100 800 l 1
 200 800 l 1
 200 700 l 1
 200 600 l 1
 100 600 l 1
 0 600 l 1
 0 700 l 1
EndSplineSet
Validated: 1
EndChar

StartChar: six
Encoding: 54 54 6
Width: 1200
VWidth: 1000
Flags: HW
LayerCount: 2
Back
Fore
SplineSet
0 100 m 1
 0 400 l 1
 100 400 l 1
 200 400 l 1
 200 100 l 1
 200 -200 l 1
 100 -200 l 1
 0 -200 l 1
 0 100 l 1
400 300 m 1
 400 800 l 1
 700 800 l 1
 1000 800 l 1
 1000 700 l 1
 1000 600 l 1
 800 600 l 1
 600 600 l 1
 600 500 l 1
 600 400 l 1
 800 400 l 1
 1000 400 l 1
 1000 100 l 1
 1000 -200 l 1
 700 -200 l 1
 400 -200 l 1
 400 300 l 1
800 100 m 1
 800 200 l 1
 700 200 l 1
 600 200 l 1
 600 100 l 1
 600 0 l 1
 700 0 l 1
 800 0 l 1
 800 100 l 1
0 700 m 1
 0 800 l 1
 100 800 l 1
 200 800 l 1
 200 700 l 1
 200 600 l 1
 100 600 l 1
 0 600 l 1
 0 700 l 1
EndSplineSet
Validated: 1
EndChar

StartChar: seven
Encoding: 55 55 7
Width: 1200
VWidth: 1000
Flags: HW
LayerCount: 2
Back
Fore
SplineSet
400 200 m 1
 400 400 l 1
 500 400 l 1
 600 400 l 1
 600 100 l 1
 600 -200 l 1
 300 -200 l 1
 0 -200 l 1
 0 -100 l 1
 0 0 l 1
 200 0 l 1
 400 0 l 1
 400 200 l 1
400 700 m 1
 400 800 l 1
 700 800 l 1
 1000 800 l 1
 1000 300 l 1
 1000 -200 l 1
 900 -200 l 1
 800 -200 l 1
 800 200 l 1
 800 600 l 1
 600 600 l 1
 400 600 l 1
 400 700 l 1
0 500 m 1
 0 800 l 1
 100 800 l 1
 200 800 l 1
 200 500 l 1
 200 200 l 1
 100 200 l 1
 0 200 l 1
 0 500 l 1
EndSplineSet
Validated: 1
EndChar

StartChar: eight
Encoding: 56 56 8
Width: 1200
VWidth: 1000
Flags: HW
LayerCount: 2
Back
Fore
SplineSet
0 100 m 1
 0 400 l 1
 100 400 l 1
 200 400 l 1
 200 100 l 1
 200 -200 l 1
 100 -200 l 1
 0 -200 l 1
 0 100 l 1
400 300 m 1
 400 800 l 1
 700 800 l 1
 1000 800 l 1
 1000 300 l 1
 1000 -200 l 1
 700 -200 l 1
 400 -200 l 1
 400 300 l 1
800 500 m 1
 800 600 l 1
 700 600 l 1
 600 600 l 1
 600 500 l 1
 600 400 l 1
 700 400 l 1
 800 400 l 1
 800 500 l 1
800 100 m 1
 800 200 l 1
 700 200 l 1
 600 200 l 1
 600 100 l 1
 600 0 l 1
 700 0 l 1
 800 0 l 1
 800 100 l 1
0 700 m 1
 0 800 l 1
 100 800 l 1
 200 800 l 1
 200 700 l 1
 200 600 l 1
 100 600 l 1
 0 600 l 1
 0 700 l 1
EndSplineSet
Validated: 1
EndChar

StartChar: nine
Encoding: 57 57 9
Width: 1200
VWidth: 1000
Flags: HW
LayerCount: 2
Back
Fore
SplineSet
0 100 m 1
 0 400 l 1
 100 400 l 1
 200 400 l 1
 200 100 l 1
 200 -200 l 1
 100 -200 l 1
 0 -200 l 1
 0 100 l 1
400 500 m 1
 400 800 l 1
 700 800 l 1
 1000 800 l 1
 1000 300 l 1
 1000 -200 l 1
 700 -200 l 1
 400 -200 l 1
 400 -100 l 1
 400 0 l 1
 600 0 l 1
 800 0 l 1
 800 100 l 1
 800 200 l 1
 600 200 l 1
 400 200 l 1
 400 500 l 1
800 500 m 1
 800 600 l 1
 700 600 l 1
 600 600 l 1
 600 500 l 1
 600 400 l 1
 700 400 l 1
 800 400 l 1
 800 500 l 1
0 700 m 1
 0 800 l 1
 100 800 l 1
 200 800 l 1
 200 700 l 1
 200 600 l 1
 100 600 l 1
 0 600 l 1
 0 700 l 1
EndSplineSet
Validated: 1
EndChar

StartChar: A
Encoding: 65 65 10
Width: 1200
VWidth: 1000
Flags: HW
LayerCount: 2
Back
Fore
SplineSet
400 -100 m 1
 400 0 l 1
 500 0 l 1
 600 0 l 1
 600 -100 l 1
 600 -200 l 1
 500 -200 l 1
 400 -200 l 1
 400 -100 l 1
0 300 m 1
 0 800 l 1
 500 800 l 1
 1000 800 l 1
 1000 300 l 1
 1000 -200 l 1
 900 -200 l 1
 800 -200 l 1
 800 0 l 1
 800 200 l 1
 600 200 l 1
 400 200 l 1
 400 300 l 1
 400 400 l 1
 600 400 l 1
 800 400 l 1
 800 500 l 1
 800 600 l 1
 500 600 l 1
 200 600 l 1
 200 200 l 1
 200 -200 l 1
 100 -200 l 1
 0 -200 l 1
 0 300 l 1
EndSplineSet
Validated: 1
EndChar

StartChar: B
Encoding: 66 66 11
Width: 1200
VWidth: 1000
Flags: HW
LayerCount: 2
Back
Fore
SplineSet
400 700 m 1
 400 800 l 1
 700 800 l 1
 1000 800 l 1
 1000 700 l 1
 1000 600 l 1
 700 600 l 1
 400 600 l 1
 400 700 l 1
0 300 m 1
 0 800 l 1
 100 800 l 1
 200 800 l 1
 200 600 l 1
 200 400 l 1
 600 400 l 1
 1000 400 l 1
 1000 100 l 1
 1000 -200 l 1
 500 -200 l 1
 0 -200 l 1
 0 300 l 1
800 100 m 1
 800 200 l 1
 500 200 l 1
 200 200 l 1
 200 100 l 1
 200 0 l 1
 500 0 l 1
 800 0 l 1
 800 100 l 1
EndSplineSet
Validated: 1
EndChar

StartChar: C
Encoding: 67 67 12
Width: 1200
VWidth: 1000
Flags: HW
LayerCount: 2
Back
Fore
SplineSet
400 300 m 1
 400 400 l 1
 700 400 l 1
 1000 400 l 1
 1000 300 l 1
 1000 200 l 1
 700 200 l 1
 400 200 l 1
 400 300 l 1
0 300 m 1
 0 800 l 1
 500 800 l 1
 1000 800 l 1
 1000 700 l 1
 1000 600 l 1
 600 600 l 1
 200 600 l 1
 200 300 l 1
 200 0 l 1
 600 0 l 1
 1000 0 l 1
 1000 -100 l 1
 1000 -200 l 1
 500 -200 l 1
 0 -200 l 1
 0 300 l 1
EndSplineSet
Validated: 1
EndChar

StartChar: D
Encoding: 68 68 13
Width: 1200
VWidth: 1000
Flags: HW
LayerCount: 2
Back
Fore
SplineSet
800 600 m 1
 800 800 l 1
 900 800 l 1
 1000 800 l 1
 1000 300 l 1
 1000 -200 l 1
 500 -200 l 1
 0 -200 l 1
 0 100 l 1
 0 400 l 1
 400 400 l 1
 800 400 l 1
 800 600 l 1
800 100 m 1
 800 200 l 1
 500 200 l 1
 200 200 l 1
 200 100 l 1
 200 0 l 1
 500 0 l 1
 800 0 l 1
 800 100 l 1
0 700 m 1
 0 800 l 1
 300 800 l 1
 600 800 l 1
 600 700 l 1
 600 600 l 1
 300 600 l 1
 0 600 l 1
 0 700 l 1
EndSplineSet
Validated: 1
EndChar

StartChar: E
Encoding: 69 69 14
Width: 1200
VWidth: 1000
Flags: HW
LayerCount: 2
Back
Fore
SplineSet
800 300 m 1
 800 400 l 1
 900 400 l 1
 1000 400 l 1
 1000 300 l 1
 1000 200 l 1
 900 200 l 1
 800 200 l 1
 800 300 l 1
0 300 m 1
 0 800 l 1
 500 800 l 1
 1000 800 l 1
 1000 700 l 1
 1000 600 l 1
 600 600 l 1
 200 600 l 1
 200 500 l 1
 200 400 l 1
 400 400 l 1
 600 400 l 1
 600 300 l 1
 600 200 l 1
 400 200 l 1
 200 200 l 1
 200 100 l 1
 200 0 l 1
 600 0 l 1
 1000 0 l 1
 1000 -100 l 1
 1000 -200 l 1
 500 -200 l 1
 0 -200 l 1
 0 300 l 1
EndSplineSet
Validated: 1
EndChar

StartChar: F
Encoding: 70 70 15
Width: 1200
VWidth: 1000
Flags: HW
LayerCount: 2
Back
Fore
SplineSet
800 -100 m 1
 800 0 l 1
 900 0 l 1
 1000 0 l 1
 1000 -100 l 1
 1000 -200 l 1
 900 -200 l 1
 800 -200 l 1
 800 -100 l 1
400 600 m 1
 400 800 l 1
 700 800 l 1
 1000 800 l 1
 1000 700 l 1
 1000 600 l 1
 800 600 l 1
 600 600 l 1
 600 500 l 1
 600 400 l 1
 800 400 l 1
 1000 400 l 1
 1000 300 l 1
 1000 200 l 1
 800 200 l 1
 600 200 l 1
 600 0 l 1
 600 -200 l 1
 300 -200 l 1
 0 -200 l 1
 0 -100 l 1
 0 0 l 1
 200 0 l 1
 400 0 l 1
 400 100 l 1
 400 200 l 1
 200 200 l 1
 0 200 l 1
 0 300 l 1
 0 400 l 1
 200 400 l 1
 400 400 l 1
 400 600 l 1
0 700 m 1
 0 800 l 1
 100 800 l 1
 200 800 l 1
 200 700 l 1
 200 600 l 1
 100 600 l 1
 0 600 l 1
 0 700 l 1
EndSplineSet
Validated: 1
EndChar

StartChar: G
Encoding: 71 71 16
Width: 1200
VWidth: 1000
Flags: HW
LayerCount: 2
Back
Fore
SplineSet
0 300 m 1
 0 800 l 1
 500 800 l 1
 1000 800 l 1
 1000 700 l 1
 1000 600 l 1
 600 600 l 1
 200 600 l 1
 200 300 l 1
 200 0 l 1
 500 0 l 1
 800 0 l 1
 800 100 l 1
 800 200 l 1
 600 200 l 1
 400 200 l 1
 400 300 l 1
 400 400 l 1
 700 400 l 1
 1000 400 l 1
 1000 100 l 1
 1000 -200 l 1
 500 -200 l 1
 0 -200 l 1
 0 300 l 1
EndSplineSet
Validated: 1
EndChar

StartChar: H
Encoding: 72 72 17
Width: 1200
VWidth: 1000
Flags: HW
LayerCount: 2
Back
Fore
SplineSet
400 -100 m 1
 400 0 l 1
 500 0 l 1
 600 0 l 1
 600 -100 l 1
 600 -200 l 1
 500 -200 l 1
 400 -200 l 1
 400 -100 l 1
400 700 m 1
 400 800 l 1
 700 800 l 1
 1000 800 l 1
 1000 700 l 1
 1000 600 l 1
 700 600 l 1
 400 600 l 1
 400 700 l 1
0 300 m 1
 0 800 l 1
 100 800 l 1
 200 800 l 1
 200 600 l 1
 200 400 l 1
 600 400 l 1
 1000 400 l 1
 1000 100 l 1
 1000 -200 l 1
 900 -200 l 1
 800 -200 l 1
 800 0 l 1
 800 200 l 1
 500 200 l 1
 200 200 l 1
 200 0 l 1
 200 -200 l 1
 100 -200 l 1
 0 -200 l 1
 0 300 l 1
EndSplineSet
Validated: 1
EndChar

StartChar: I
Encoding: 73 73 18
Width: 1200
VWidth: 1000
Flags: HW
LayerCount: 2
Back
Fore
SplineSet
400 100 m 1
 400 400 l 1
 500 400 l 1
 600 400 l 1
 600 100 l 1
 600 -200 l 1
 500 -200 l 1
 400 -200 l 1
 400 100 l 1
800 300 m 1
 800 800 l 1
 900 800 l 1
 1000 800 l 1
 1000 300 l 1
 1000 -200 l 1
 900 -200 l 1
 800 -200 l 1
 800 300 l 1
400 700 m 1
 400 800 l 1
 500 800 l 1
 600 800 l 1
 600 700 l 1
 600 600 l 1
 500 600 l 1
 400 600 l 1
 400 700 l 1
0 300 m 1
 0 800 l 1
 100 800 l 1
 200 800 l 1
 200 300 l 1
 200 -200 l 1
 100 -200 l 1
 0 -200 l 1
 0 300 l 1
EndSplineSet
Validated: 1
EndChar

StartChar: J
Encoding: 74 74 19
Width: 1200
VWidth: 1000
Flags: HW
LayerCount: 2
Back
Fore
SplineSet
800 200 m 1
 800 400 l 1
 900 400 l 1
 1000 400 l 1
 1000 100 l 1
 1000 -200 l 1
 500 -200 l 1
 0 -200 l 1
 0 -100 l 1
 0 0 l 1
 400 0 l 1
 800 0 l 1
 800 200 l 1
800 700 m 1
 800 800 l 1
 900 800 l 1
 1000 800 l 1
 1000 700 l 1
 1000 600 l 1
 900 600 l 1
 800 600 l 1
 800 700 l 1
0 500 m 1
 0 800 l 1
 300 800 l 1
 600 800 l 1
 600 500 l 1
 600 200 l 1
 500 200 l 1
 400 200 l 1
 400 400 l 1
 400 600 l 1
 300 600 l 1
 200 600 l 1
 200 400 l 1
 200 200 l 1
 100 200 l 1
 0 200 l 1
 0 500 l 1
EndSplineSet
Validated: 1
EndChar

StartChar: K
Encoding: 75 75 20
Width: 1200
VWidth: 1000
Flags: HW
LayerCount: 2
Back
Fore
SplineSet
800 300 m 1
 800 400 l 1
 900 400 l 1
 1000 400 l 1
 1000 300 l 1
 1000 200 l 1
 900 200 l 1
 800 200 l 1
 800 300 l 1
0 300 m 1
 0 800 l 1
 100 800 l 1
 200 800 l 1
 200 600 l 1
 200 400 l 1
 300 400 l 1
 400 400 l 1
 400 600 l 1
 400 800 l 1
 700 800 l 1
 1000 800 l 1
 1000 700 l 1
 1000 600 l 1
 800 600 l 1
 600 600 l 1
 600 300 l 1
 600 0 l 1
 800 0 l 1
 1000 0 l 1
 1000 -100 l 1
 1000 -200 l 1
 700 -200 l 1
 400 -200 l 1
 400 0 l 1
 400 200 l 1
 300 200 l 1
 200 200 l 1
 200 0 l 1
 200 -200 l 1
 100 -200 l 1
 0 -200 l 1
 0 300 l 1
EndSplineSet
Validated: 1
EndChar

StartChar: L
Encoding: 76 76 21
Width: 1200
VWidth: 1000
Flags: HW
LayerCount: 2
Back
Fore
SplineSet
400 500 m 1
 400 800 l 1
 700 800 l 1
 1000 800 l 1
 1000 500 l 1
 1000 200 l 1
 900 200 l 1
 800 200 l 1
 800 400 l 1
 800 600 l 1
 700 600 l 1
 600 600 l 1
 600 400 l 1
 600 200 l 1
 500 200 l 1
 400 200 l 1
 400 500 l 1
0 300 m 1
 0 800 l 1
 100 800 l 1
 200 800 l 1
 200 400 l 1
 200 0 l 1
 600 0 l 1
 1000 0 l 1
 1000 -100 l 1
 1000 -200 l 1
 500 -200 l 1
 0 -200 l 1
 0 300 l 1
EndSplineSet
Validated: 1
EndChar

StartChar: M
Encoding: 77 77 22
Width: 1200
VWidth: 1000
Flags: HW
LayerCount: 2
Back
Fore
SplineSet
400 -100 m 1
 400 0 l 1
 500 0 l 1
 600 0 l 1
 600 -100 l 1
 600 -200 l 1
 500 -200 l 1
 400 -200 l 1
 400 -100 l 1
0 300 m 1
 0 800 l 1
 500 800 l 1
 1000 800 l 1
 1000 300 l 1
 1000 -200 l 1
 900 -200 l 1
 800 -200 l 1
 800 200 l 1
 800 600 l 1
 700 600 l 1
 600 600 l 1
 600 400 l 1
 600 200 l 1
 500 200 l 1
 400 200 l 1
 400 400 l 1
 400 600 l 1
 300 600 l 1
 200 600 l 1
 200 200 l 1
 200 -200 l 1
 100 -200 l 1
 0 -200 l 1
 0 300 l 1
EndSplineSet
Validated: 1
EndChar

StartChar: N
Encoding: 78 78 23
Width: 1200
VWidth: 1000
Flags: HW
LayerCount: 2
Back
Fore
SplineSet
0 300 m 1
 0 800 l 1
 300 800 l 1
 600 800 l 1
 600 400 l 1
 600 0 l 1
 700 0 l 1
 800 0 l 1
 800 400 l 1
 800 800 l 1
 900 800 l 1
 1000 800 l 1
 1000 300 l 1
 1000 -200 l 1
 700 -200 l 1
 400 -200 l 1
 400 200 l 1
 400 600 l 1
 300 600 l 1
 200 600 l 1
 200 200 l 1
 200 -200 l 1
 100 -200 l 1
 0 -200 l 1
 0 300 l 1
EndSplineSet
Validated: 1
EndChar

StartChar: O
Encoding: 79 79 24
Width: 1200
VWidth: 1000
Flags: HW
LayerCount: 2
Back
Fore
SplineSet
400 300 m 1
 400 400 l 1
 500 400 l 1
 600 400 l 1
 600 300 l 1
 600 200 l 1
 500 200 l 1
 400 200 l 1
 400 300 l 1
0 300 m 1
 0 800 l 1
 500 800 l 1
 1000 800 l 1
 1000 300 l 1
 1000 -200 l 1
 500 -200 l 1
 0 -200 l 1
 0 300 l 1
800 300 m 1
 800 600 l 1
 500 600 l 1
 200 600 l 1
 200 300 l 1
 200 0 l 1
 500 0 l 1
 800 0 l 1
 800 300 l 1
EndSplineSet
Validated: 1
EndChar

StartChar: P
Encoding: 80 80 25
Width: 1200
VWidth: 1000
Flags: HW
LayerCount: 2
Back
Fore
SplineSet
400 -100 m 1
 400 0 l 1
 700 0 l 1
 1000 0 l 1
 1000 -100 l 1
 1000 -200 l 1
 700 -200 l 1
 400 -200 l 1
 400 -100 l 1
0 300 m 1
 0 800 l 1
 500 800 l 1
 1000 800 l 1
 1000 500 l 1
 1000 200 l 1
 600 200 l 1
 200 200 l 1
 200 0 l 1
 200 -200 l 1
 100 -200 l 1
 0 -200 l 1
 0 300 l 1
800 500 m 1
 800 600 l 1
 500 600 l 1
 200 600 l 1
 200 500 l 1
 200 400 l 1
 500 400 l 1
 800 400 l 1
 800 500 l 1
EndSplineSet
Validated: 1
EndChar

StartChar: Q
Encoding: 81 81 26
Width: 1200
VWidth: 1000
Flags: HW
LayerCount: 2
Back
Fore
SplineSet
0 -100 m 1
 0 0 l 1
 300 0 l 1
 600 0 l 1
 600 -100 l 1
 600 -200 l 1
 300 -200 l 1
 0 -200 l 1
 0 -100 l 1
0 500 m 1
 0 800 l 1
 500 800 l 1
 1000 800 l 1
 1000 300 l 1
 1000 -200 l 1
 900 -200 l 1
 800 -200 l 1
 800 0 l 1
 800 200 l 1
 400 200 l 1
 0 200 l 1
 0 500 l 1
800 500 m 1
 800 600 l 1
 500 600 l 1
 200 600 l 1
 200 500 l 1
 200 400 l 1
 500 400 l 1
 800 400 l 1
 800 500 l 1
EndSplineSet
Validated: 1
EndChar

StartChar: R
Encoding: 82 82 27
Width: 1200
VWidth: 1000
Flags: HW
LayerCount: 2
Back
Fore
SplineSet
0 300 m 1
 0 800 l 1
 500 800 l 1
 1000 800 l 1
 1000 500 l 1
 1000 200 l 1
 800 200 l 1
 600 200 l 1
 600 100 l 1
 600 0 l 1
 800 0 l 1
 1000 0 l 1
 1000 -100 l 1
 1000 -200 l 1
 700 -200 l 1
 400 -200 l 1
 400 0 l 1
 400 200 l 1
 300 200 l 1
 200 200 l 1
 200 0 l 1
 200 -200 l 1
 100 -200 l 1
 0 -200 l 1
 0 300 l 1
800 500 m 1
 800 600 l 1
 500 600 l 1
 200 600 l 1
 200 500 l 1
 200 400 l 1
 500 400 l 1
 800 400 l 1
 800 500 l 1
EndSplineSet
Validated: 1
EndChar

StartChar: S
Encoding: 83 83 28
Width: 1200
VWidth: 1000
Flags: HW
LayerCount: 2
Back
Fore
SplineSet
0 500 m 1
 0 800 l 1
 500 800 l 1
 1000 800 l 1
 1000 700 l 1
 1000 600 l 1
 600 600 l 1
 200 600 l 1
 200 500 l 1
 200 400 l 1
 600 400 l 1
 1000 400 l 1
 1000 100 l 1
 1000 -200 l 1
 500 -200 l 1
 0 -200 l 1
 0 -100 l 1
 0 0 l 1
 400 0 l 1
 800 0 l 1
 800 100 l 1
 800 200 l 1
 400 200 l 1
 0 200 l 1
 0 500 l 1
EndSplineSet
Validated: 1
EndChar

StartChar: T
Encoding: 84 84 29
Width: 1200
VWidth: 1000
Flags: HW
LayerCount: 2
Back
Fore
SplineSet
0 -100 m 1
 0 0 l 1
 100 0 l 1
 200 0 l 1
 200 -100 l 1
 200 -200 l 1
 100 -200 l 1
 0 -200 l 1
 0 -100 l 1
800 700 m 1
 800 800 l 1
 900 800 l 1
 1000 800 l 1
 1000 700 l 1
 1000 600 l 1
 900 600 l 1
 800 600 l 1
 800 700 l 1
400 600 m 1
 400 800 l 1
 500 800 l 1
 600 800 l 1
 600 600 l 1
 600 400 l 1
 800 400 l 1
 1000 400 l 1
 1000 300 l 1
 1000 200 l 1
 800 200 l 1
 600 200 l 1
 600 100 l 1
 600 0 l 1
 800 0 l 1
 1000 0 l 1
 1000 -100 l 1
 1000 -200 l 1
 700 -200 l 1
 400 -200 l 1
 400 0 l 1
 400 200 l 1
 200 200 l 1
 0 200 l 1
 0 300 l 1
 0 400 l 1
 200 400 l 1
 400 400 l 1
 400 600 l 1
0 700 m 1
 0 800 l 1
 100 800 l 1
 200 800 l 1
 200 700 l 1
 200 600 l 1
 100 600 l 1
 0 600 l 1
 0 700 l 1
EndSplineSet
Validated: 1
EndChar

StartChar: U
Encoding: 85 85 30
Width: 1200
VWidth: 1000
Flags: HW
LayerCount: 2
Back
Fore
SplineSet
400 500 m 1
 400 800 l 1
 500 800 l 1
 600 800 l 1
 600 500 l 1
 600 200 l 1
 500 200 l 1
 400 200 l 1
 400 500 l 1
0 300 m 1
 0 800 l 1
 100 800 l 1
 200 800 l 1
 200 400 l 1
 200 0 l 1
 500 0 l 1
 800 0 l 1
 800 400 l 1
 800 800 l 1
 900 800 l 1
 1000 800 l 1
 1000 300 l 1
 1000 -200 l 1
 500 -200 l 1
 0 -200 l 1
 0 300 l 1
EndSplineSet
Validated: 1
EndChar

StartChar: V
Encoding: 86 86 31
Width: 1200
VWidth: 1000
Flags: HW
LayerCount: 2
Back
Fore
SplineSet
800 -100 m 1
 800 0 l 1
 900 0 l 1
 1000 0 l 1
 1000 -100 l 1
 1000 -200 l 1
 900 -200 l 1
 800 -200 l 1
 800 -100 l 1
400 700 m 1
 400 800 l 1
 500 800 l 1
 600 800 l 1
 600 700 l 1
 600 600 l 1
 500 600 l 1
 400 600 l 1
 400 700 l 1
0 300 m 1
 0 800 l 1
 100 800 l 1
 200 800 l 1
 200 400 l 1
 200 0 l 1
 300 0 l 1
 400 0 l 1
 400 200 l 1
 400 400 l 1
 600 400 l 1
 800 400 l 1
 800 600 l 1
 800 800 l 1
 900 800 l 1
 1000 800 l 1
 1000 500 l 1
 1000 200 l 1
 800 200 l 1
 600 200 l 1
 600 0 l 1
 600 -200 l 1
 300 -200 l 1
 0 -200 l 1
 0 300 l 1
EndSplineSet
Validated: 1
EndChar

StartChar: W
Encoding: 87 87 32
Width: 1200
VWidth: 1000
Flags: HW
LayerCount: 2
Back
Fore
SplineSet
400 700 m 1
 400 800 l 1
 500 800 l 1
 600 800 l 1
 600 700 l 1
 600 600 l 1
 500 600 l 1
 400 600 l 1
 400 700 l 1
0 300 m 1
 0 800 l 1
 100 800 l 1
 200 800 l 1
 200 400 l 1
 200 0 l 1
 300 0 l 1
 400 0 l 1
 400 200 l 1
 400 400 l 1
 500 400 l 1
 600 400 l 1
 600 200 l 1
 600 0 l 1
 700 0 l 1
 800 0 l 1
 800 400 l 1
 800 800 l 1
 900 800 l 1
 1000 800 l 1
 1000 300 l 1
 1000 -200 l 1
 500 -200 l 1
 0 -200 l 1
 0 300 l 1
EndSplineSet
Validated: 1
EndChar

StartChar: X
Encoding: 88 88 33
Width: 1200
VWidth: 1000
Flags: HW
LayerCount: 2
Back
Fore
SplineSet
0 700 m 1
 0 800 l 1
 300 800 l 1
 600 800 l 1
 600 600 l 1
 600 400 l 1
 700 400 l 1
 800 400 l 1
 800 600 l 1
 800 800 l 1
 900 800 l 1
 1000 800 l 1
 1000 500 l 1
 1000 200 l 1
 800 200 l 1
 600 200 l 1
 600 100 l 1
 600 0 l 1
 800 0 l 1
 1000 0 l 1
 1000 -100 l 1
 1000 -200 l 1
 700 -200 l 1
 400 -200 l 1
 400 0 l 1
 400 200 l 1
 300 200 l 1
 200 200 l 1
 200 0 l 1
 200 -200 l 1
 100 -200 l 1
 0 -200 l 1
 0 100 l 1
 0 400 l 1
 200 400 l 1
 400 400 l 1
 400 500 l 1
 400 600 l 1
 200 600 l 1
 0 600 l 1
 0 700 l 1
EndSplineSet
Validated: 1
EndChar

StartChar: Y
Encoding: 89 89 34
Width: 1200
VWidth: 1000
Flags: HW
LayerCount: 2
Back
Fore
SplineSet
800 -100 m 1
 800 0 l 1
 900 0 l 1
 1000 0 l 1
 1000 -100 l 1
 1000 -200 l 1
 900 -200 l 1
 800 -200 l 1
 800 -100 l 1
0 -100 m 1
 0 0 l 1
 100 0 l 1
 200 0 l 1
 200 -100 l 1
 200 -200 l 1
 100 -200 l 1
 0 -200 l 1
 0 -100 l 1
400 700 m 1
 400 800 l 1
 500 800 l 1
 600 800 l 1
 600 700 l 1
 600 600 l 1
 500 600 l 1
 400 600 l 1
 400 700 l 1
0 500 m 1
 0 800 l 1
 100 800 l 1
 200 800 l 1
 200 600 l 1
 200 400 l 1
 500 400 l 1
 800 400 l 1
 800 600 l 1
 800 800 l 1
 900 800 l 1
 1000 800 l 1
 1000 500 l 1
 1000 200 l 1
 800 200 l 1
 600 200 l 1
 600 0 l 1
 600 -200 l 1
 500 -200 l 1
 400 -200 l 1
 400 0 l 1
 400 200 l 1
 200 200 l 1
 0 200 l 1
 0 500 l 1
EndSplineSet
Validated: 1
EndChar

StartChar: Z
Encoding: 90 90 35
Width: 1200
VWidth: 1000
Flags: HW
LayerCount: 2
Back
Fore
SplineSet
0 700 m 1
 0 800 l 1
 500 800 l 1
 1000 800 l 1
 1000 500 l 1
 1000 200 l 1
 600 200 l 1
 200 200 l 1
 200 100 l 1
 200 0 l 1
 600 0 l 1
 1000 0 l 1
 1000 -100 l 1
 1000 -200 l 1
 500 -200 l 1
 0 -200 l 1
 0 100 l 1
 0 400 l 1
 400 400 l 1
 800 400 l 1
 800 500 l 1
 800 600 l 1
 400 600 l 1
 0 600 l 1
 0 700 l 1
EndSplineSet
Validated: 1
EndChar

StartChar: exclam
Encoding: 33 33 36
Width: 1200
VWidth: 1000
Flags: HW
LayerCount: 2
Back
Fore
SplineSet
400 -100 m 1
 400 0 l 1
 500 0 l 1
 600 0 l 1
 600 -100 l 1
 600 -200 l 1
 500 -200 l 1
 400 -200 l 1
 400 -100 l 1
800 100 m 1
 800 400 l 1
 900 400 l 1
 1000 400 l 1
 1000 100 l 1
 1000 -200 l 1
 900 -200 l 1
 800 -200 l 1
 800 100 l 1
0 100 m 1
 0 400 l 1
 100 400 l 1
 200 400 l 1
 200 100 l 1
 200 -200 l 1
 100 -200 l 1
 0 -200 l 1
 0 100 l 1
800 700 m 1
 800 800 l 1
 900 800 l 1
 1000 800 l 1
 1000 700 l 1
 1000 600 l 1
 900 600 l 1
 800 600 l 1
 800 700 l 1
400 500 m 1
 400 800 l 1
 500 800 l 1
 600 800 l 1
 600 500 l 1
 600 200 l 1
 500 200 l 1
 400 200 l 1
 400 500 l 1
0 700 m 1
 0 800 l 1
 100 800 l 1
 200 800 l 1
 200 700 l 1
 200 600 l 1
 100 600 l 1
 0 600 l 1
 0 700 l 1
EndSplineSet
Validated: 1
EndChar

StartChar: quotedbl
Encoding: 34 34 37
Width: 1200
VWidth: 1000
Flags: HW
LayerCount: 2
Back
Fore
SplineSet
800 500 m 1
 800 800 l 1
 900 800 l 1
 1000 800 l 1
 1000 500 l 1
 1000 200 l 1
 900 200 l 1
 800 200 l 1
 800 500 l 1
400 500 m 1
 400 800 l 1
 500 800 l 1
 600 800 l 1
 600 500 l 1
 600 200 l 1
 500 200 l 1
 400 200 l 1
 400 500 l 1
0 300 m 1
 0 800 l 1
 100 800 l 1
 200 800 l 1
 200 400 l 1
 200 0 l 1
 600 0 l 1
 1000 0 l 1
 1000 -100 l 1
 1000 -200 l 1
 500 -200 l 1
 0 -200 l 1
 0 300 l 1
EndSplineSet
Validated: 1
EndChar

StartChar: numbersign
Encoding: 35 35 38
Width: 1200
VWidth: 1000
Flags: HW
LayerCount: 2
Back
Fore
SplineSet
400 600 m 1
 400 800 l 1
 500 800 l 1
 600 800 l 1
 600 600 l 1
 600 400 l 1
 700 400 l 1
 800 400 l 1
 800 600 l 1
 800 800 l 1
 900 800 l 1
 1000 800 l 1
 1000 300 l 1
 1000 -200 l 1
 500 -200 l 1
 0 -200 l 1
 0 -100 l 1
 0 0 l 1
 200 0 l 1
 400 0 l 1
 400 100 l 1
 400 200 l 1
 200 200 l 1
 0 200 l 1
 0 300 l 1
 0 400 l 1
 200 400 l 1
 400 400 l 1
 400 600 l 1
800 100 m 1
 800 200 l 1
 700 200 l 1
 600 200 l 1
 600 100 l 1
 600 0 l 1
 700 0 l 1
 800 0 l 1
 800 100 l 1
0 700 m 1
 0 800 l 1
 100 800 l 1
 200 800 l 1
 200 700 l 1
 200 600 l 1
 100 600 l 1
 0 600 l 1
 0 700 l 1
EndSplineSet
Validated: 1
EndChar

StartChar: dollar
Encoding: 36 36 39
Width: 1200
VWidth: 1000
Flags: HW
LayerCount: 2
Back
Fore
SplineSet
0 500 m 1
 0 800 l 1
 500 800 l 1
 1000 800 l 1
 1000 700 l 1
 1000 600 l 1
 800 600 l 1
 600 600 l 1
 600 500 l 1
 600 400 l 1
 800 400 l 1
 1000 400 l 1
 1000 100 l 1
 1000 -200 l 1
 500 -200 l 1
 0 -200 l 1
 0 -100 l 1
 0 0 l 1
 200 0 l 1
 400 0 l 1
 400 100 l 1
 400 200 l 1
 200 200 l 1
 0 200 l 1
 0 500 l 1
400 500 m 1
 400 600 l 1
 300 600 l 1
 200 600 l 1
 200 500 l 1
 200 400 l 1
 300 400 l 1
 400 400 l 1
 400 500 l 1
800 100 m 1
 800 200 l 1
 700 200 l 1
 600 200 l 1
 600 100 l 1
 600 0 l 1
 700 0 l 1
 800 0 l 1
 800 100 l 1
EndSplineSet
Validated: 1
EndChar

StartChar: percent
Encoding: 37 37 40
Width: 1200
VWidth: 1000
Flags: HW
LayerCount: 2
Back
Fore
SplineSet
400 -100 m 1
 400 0 l 1
 700 0 l 1
 1000 0 l 1
 1000 -100 l 1
 1000 -200 l 1
 700 -200 l 1
 400 -200 l 1
 400 -100 l 1
800 600 m 1
 800 800 l 1
 900 800 l 1
 1000 800 l 1
 1000 500 l 1
 1000 200 l 1
 600 200 l 1
 200 200 l 1
 200 0 l 1
 200 -200 l 1
 100 -200 l 1
 0 -200 l 1
 0 100 l 1
 0 400 l 1
 400 400 l 1
 800 400 l 1
 800 600 l 1
0 700 m 1
 0 800 l 1
 300 800 l 1
 600 800 l 1
 600 700 l 1
 600 600 l 1
 300 600 l 1
 0 600 l 1
 0 700 l 1
EndSplineSet
Validated: 1
EndChar

StartChar: ampersand
Encoding: 38 38 41
Width: 1200
VWidth: 1000
Flags: HW
LayerCount: 2
Back
Fore
SplineSet
800 700 m 1
 800 800 l 1
 900 800 l 1
 1000 800 l 1
 1000 700 l 1
 1000 600 l 1
 900 600 l 1
 800 600 l 1
 800 700 l 1
0 300 m 1
 0 800 l 1
 300 800 l 1
 600 800 l 1
 600 600 l 1
 600 400 l 1
 800 400 l 1
 1000 400 l 1
 1000 300 l 1
 1000 200 l 1
 800 200 l 1
 600 200 l 1
 600 100 l 1
 600 0 l 1
 800 0 l 1
 1000 0 l 1
 1000 -100 l 1
 1000 -200 l 1
 500 -200 l 1
 0 -200 l 1
 0 300 l 1
400 500 m 1
 400 600 l 1
 300 600 l 1
 200 600 l 1
 200 500 l 1
 200 400 l 1
 300 400 l 1
 400 400 l 1
 400 500 l 1
400 100 m 1
 400 200 l 1
 300 200 l 1
 200 200 l 1
 200 100 l 1
 200 0 l 1
 300 0 l 1
 400 0 l 1
 400 100 l 1
EndSplineSet
Validated: 1
EndChar

StartChar: quotesingle
Encoding: 39 39 42
Width: 1200
VWidth: 1000
Flags: HW
LayerCount: 2
Back
Fore
SplineSet
0 100 m 1
 0 400 l 1
 100 400 l 1
 200 400 l 1
 200 200 l 1
 200 0 l 1
 600 0 l 1
 1000 0 l 1
 1000 -100 l 1
 1000 -200 l 1
 500 -200 l 1
 0 -200 l 1
 0 100 l 1
800 500 m 1
 800 800 l 1
 900 800 l 1
 1000 800 l 1
 1000 500 l 1
 1000 200 l 1
 900 200 l 1
 800 200 l 1
 800 500 l 1
0 700 m 1
 0 800 l 1
 300 800 l 1
 600 800 l 1
 600 500 l 1
 600 200 l 1
 500 200 l 1
 400 200 l 1
 400 400 l 1
 400 600 l 1
 200 600 l 1
 0 600 l 1
 0 700 l 1
EndSplineSet
Validated: 1
EndChar

StartChar: parenleft
Encoding: 40 40 43
Width: 1200
VWidth: 1000
Flags: HW
LayerCount: 2
Back
Fore
SplineSet
400 -100 m 1
 400 0 l 1
 700 0 l 1
 1000 0 l 1
 1000 -100 l 1
 1000 -200 l 1
 700 -200 l 1
 400 -200 l 1
 400 -100 l 1
0 -100 m 1
 0 0 l 1
 100 0 l 1
 200 0 l 1
 200 -100 l 1
 200 -200 l 1
 100 -200 l 1
 0 -200 l 1
 0 -100 l 1
400 300 m 1
 400 400 l 1
 700 400 l 1
 1000 400 l 1
 1000 300 l 1
 1000 200 l 1
 700 200 l 1
 400 200 l 1
 400 300 l 1
0 300 m 1
 0 400 l 1
 100 400 l 1
 200 400 l 1
 200 300 l 1
 200 200 l 1
 100 200 l 1
 0 200 l 1
 0 300 l 1
400 700 m 1
 400 800 l 1
 700 800 l 1
 1000 800 l 1
 1000 700 l 1
 1000 600 l 1
 700 600 l 1
 400 600 l 1
 400 700 l 1
0 700 m 1
 0 800 l 1
 100 800 l 1
 200 800 l 1
 200 700 l 1
 200 600 l 1
 100 600 l 1
 0 600 l 1
 0 700 l 1
EndSplineSet
Validated: 1
EndChar

StartChar: parenright
Encoding: 41 41 44
Width: 1200
VWidth: 1000
Flags: HW
LayerCount: 2
Back
Fore
SplineSet
800 -100 m 1
 800 0 l 1
 900 0 l 1
 1000 0 l 1
 1000 -100 l 1
 1000 -200 l 1
 900 -200 l 1
 800 -200 l 1
 800 -100 l 1
0 -100 m 1
 0 0 l 1
 300 0 l 1
 600 0 l 1
 600 -100 l 1
 600 -200 l 1
 300 -200 l 1
 0 -200 l 1
 0 -100 l 1
800 300 m 1
 800 400 l 1
 900 400 l 1
 1000 400 l 1
 1000 300 l 1
 1000 200 l 1
 900 200 l 1
 800 200 l 1
 800 300 l 1
0 300 m 1
 0 400 l 1
 300 400 l 1
 600 400 l 1
 600 300 l 1
 600 200 l 1
 300 200 l 1
 0 200 l 1
 0 300 l 1
800 700 m 1
 800 800 l 1
 900 800 l 1
 1000 800 l 1
 1000 700 l 1
 1000 600 l 1
 900 600 l 1
 800 600 l 1
 800 700 l 1
0 700 m 1
 0 800 l 1
 300 800 l 1
 600 800 l 1
 600 700 l 1
 600 600 l 1
 300 600 l 1
 0 600 l 1
 0 700 l 1
EndSplineSet
Validated: 1
EndChar

StartChar: asterisk
Encoding: 42 42 45
Width: 1200
VWidth: 1000
Flags: HW
LayerCount: 2
Back
Fore
SplineSet
800 700 m 1
 800 800 l 1
 900 800 l 1
 1000 800 l 1
 1000 700 l 1
 1000 600 l 1
 900 600 l 1
 800 600 l 1
 800 700 l 1
400 600 m 1
 400 800 l 1
 500 800 l 1
 600 800 l 1
 600 600 l 1
 600 400 l 1
 800 400 l 1
 1000 400 l 1
 1000 300 l 1
 1000 200 l 1
 800 200 l 1
 600 200 l 1
 600 100 l 1
 600 0 l 1
 800 0 l 1
 1000 0 l 1
 1000 -100 l 1
 1000 -200 l 1
 500 -200 l 1
 0 -200 l 1
 0 -100 l 1
 0 0 l 1
 200 0 l 1
 400 0 l 1
 400 100 l 1
 400 200 l 1
 200 200 l 1
 0 200 l 1
 0 300 l 1
 0 400 l 1
 200 400 l 1
 400 400 l 1
 400 600 l 1
0 700 m 1
 0 800 l 1
 100 800 l 1
 200 800 l 1
 200 700 l 1
 200 600 l 1
 100 600 l 1
 0 600 l 1
 0 700 l 1
EndSplineSet
Validated: 1
EndChar

StartChar: plus
Encoding: 43 43 46
Width: 1200
VWidth: 1000
Flags: HW
LayerCount: 2
Back
Fore
SplineSet
800 -100 m 1
 800 0 l 1
 900 0 l 1
 1000 0 l 1
 1000 -100 l 1
 1000 -200 l 1
 900 -200 l 1
 800 -200 l 1
 800 -100 l 1
0 -100 m 1
 0 0 l 1
 100 0 l 1
 200 0 l 1
 200 -100 l 1
 200 -200 l 1
 100 -200 l 1
 0 -200 l 1
 0 -100 l 1
800 700 m 1
 800 800 l 1
 900 800 l 1
 1000 800 l 1
 1000 700 l 1
 1000 600 l 1
 900 600 l 1
 800 600 l 1
 800 700 l 1
400 600 m 1
 400 800 l 1
 500 800 l 1
 600 800 l 1
 600 600 l 1
 600 400 l 1
 800 400 l 1
 1000 400 l 1
 1000 300 l 1
 1000 200 l 1
 800 200 l 1
 600 200 l 1
 600 0 l 1
 600 -200 l 1
 500 -200 l 1
 400 -200 l 1
 400 0 l 1
 400 200 l 1
 200 200 l 1
 0 200 l 1
 0 300 l 1
 0 400 l 1
 200 400 l 1
 400 400 l 1
 400 600 l 1
0 700 m 1
 0 800 l 1
 100 800 l 1
 200 800 l 1
 200 700 l 1
 200 600 l 1
 100 600 l 1
 0 600 l 1
 0 700 l 1
EndSplineSet
Validated: 1
EndChar

StartChar: comma
Encoding: 44 44 47
Width: 1200
VWidth: 1000
Flags: HW
LayerCount: 2
Back
Fore
SplineSet
800 200 m 1
 800 400 l 1
 900 400 l 1
 1000 400 l 1
 1000 100 l 1
 1000 -200 l 1
 700 -200 l 1
 400 -200 l 1
 400 -100 l 1
 400 0 l 1
 600 0 l 1
 800 0 l 1
 800 200 l 1
0 100 m 1
 0 400 l 1
 300 400 l 1
 600 400 l 1
 600 300 l 1
 600 200 l 1
 400 200 l 1
 200 200 l 1
 200 0 l 1
 200 -200 l 1
 100 -200 l 1
 0 -200 l 1
 0 100 l 1
0 700 m 1
 0 800 l 1
 500 800 l 1
 1000 800 l 1
 1000 700 l 1
 1000 600 l 1
 500 600 l 1
 0 600 l 1
 0 700 l 1
EndSplineSet
Validated: 1
EndChar

StartChar: hyphen
Encoding: 45 45 48
Width: 1200
VWidth: 1000
Flags: HW
LayerCount: 2
Back
Fore
SplineSet
400 -100 m 1
 400 0 l 1
 700 0 l 1
 1000 0 l 1
 1000 -100 l 1
 1000 -200 l 1
 700 -200 l 1
 400 -200 l 1
 400 -100 l 1
0 -100 m 1
 0 0 l 1
 100 0 l 1
 200 0 l 1
 200 -100 l 1
 200 -200 l 1
 100 -200 l 1
 0 -200 l 1
 0 -100 l 1
0 300 m 1
 0 400 l 1
 500 400 l 1
 1000 400 l 1
 1000 300 l 1
 1000 200 l 1
 500 200 l 1
 0 200 l 1
 0 300 l 1
800 700 m 1
 800 800 l 1
 900 800 l 1
 1000 800 l 1
 1000 700 l 1
 1000 600 l 1
 900 600 l 1
 800 600 l 1
 800 700 l 1
0 700 m 1
 0 800 l 1
 300 800 l 1
 600 800 l 1
 600 700 l 1
 600 600 l 1
 300 600 l 1
 0 600 l 1
 0 700 l 1
EndSplineSet
Validated: 1
EndChar

StartChar: period
Encoding: 46 46 49
Width: 1200
VWidth: 1000
Flags: HW
LayerCount: 2
Back
Fore
SplineSet
800 -100 m 1
 800 0 l 1
 900 0 l 1
 1000 0 l 1
 1000 -100 l 1
 1000 -200 l 1
 900 -200 l 1
 800 -200 l 1
 800 -100 l 1
400 200 m 1
 400 400 l 1
 700 400 l 1
 1000 400 l 1
 1000 300 l 1
 1000 200 l 1
 800 200 l 1
 600 200 l 1
 600 0 l 1
 600 -200 l 1
 300 -200 l 1
 0 -200 l 1
 0 -100 l 1
 0 0 l 1
 200 0 l 1
 400 0 l 1
 400 200 l 1
0 500 m 1
 0 800 l 1
 500 800 l 1
 1000 800 l 1
 1000 700 l 1
 1000 600 l 1
 600 600 l 1
 200 600 l 1
 200 400 l 1
 200 200 l 1
 100 200 l 1
 0 200 l 1
 0 500 l 1
EndSplineSet
Validated: 1
EndChar

StartChar: slash
Encoding: 47 47 50
Width: 1200
VWidth: 1000
Flags: HW
LayerCount: 2
Back
Fore
SplineSet
800 -100 m 1
 800 0 l 1
 900 0 l 1
 1000 0 l 1
 1000 -100 l 1
 1000 -200 l 1
 900 -200 l 1
 800 -200 l 1
 800 -100 l 1
800 600 m 1
 800 800 l 1
 900 800 l 1
 1000 800 l 1
 1000 500 l 1
 1000 200 l 1
 800 200 l 1
 600 200 l 1
 600 0 l 1
 600 -200 l 1
 300 -200 l 1
 0 -200 l 1
 0 -100 l 1
 0 0 l 1
 200 0 l 1
 400 0 l 1
 400 200 l 1
 400 400 l 1
 600 400 l 1
 800 400 l 1
 800 600 l 1
0 500 m 1
 0 800 l 1
 300 800 l 1
 600 800 l 1
 600 700 l 1
 600 600 l 1
 400 600 l 1
 200 600 l 1
 200 400 l 1
 200 200 l 1
 100 200 l 1
 0 200 l 1
 0 500 l 1
EndSplineSet
Validated: 1
EndChar

StartChar: colon
Encoding: 58 58 51
Width: 1200
VWidth: 1000
Flags: HW
LayerCount: 2
Back
Fore
SplineSet
800 -100 m 1
 800 0 l 1
 900 0 l 1
 1000 0 l 1
 1000 -100 l 1
 1000 -200 l 1
 900 -200 l 1
 800 -200 l 1
 800 -100 l 1
0 100 m 1
 0 400 l 1
 100 400 l 1
 200 400 l 1
 200 200 l 1
 200 0 l 1
 400 0 l 1
 600 0 l 1
 600 -100 l 1
 600 -200 l 1
 300 -200 l 1
 0 -200 l 1
 0 100 l 1
800 700 m 1
 800 800 l 1
 900 800 l 1
 1000 800 l 1
 1000 700 l 1
 1000 600 l 1
 900 600 l 1
 800 600 l 1
 800 700 l 1
0 700 m 1
 0 800 l 1
 300 800 l 1
 600 800 l 1
 600 600 l 1
 600 400 l 1
 800 400 l 1
 1000 400 l 1
 1000 300 l 1
 1000 200 l 1
 700 200 l 1
 400 200 l 1
 400 400 l 1
 400 600 l 1
 200 600 l 1
 0 600 l 1
 0 700 l 1
EndSplineSet
Validated: 1
EndChar

StartChar: semicolon
Encoding: 59 59 52
Width: 1200
VWidth: 1000
Flags: HW
LayerCount: 2
Back
Fore
SplineSet
800 200 m 1
 800 400 l 1
 900 400 l 1
 1000 400 l 1
 1000 100 l 1
 1000 -200 l 1
 700 -200 l 1
 400 -200 l 1
 400 -100 l 1
 400 0 l 1
 600 0 l 1
 800 0 l 1
 800 200 l 1
0 100 m 1
 0 400 l 1
 100 400 l 1
 200 400 l 1
 200 100 l 1
 200 -200 l 1
 100 -200 l 1
 0 -200 l 1
 0 100 l 1
800 700 m 1
 800 800 l 1
 900 800 l 1
 1000 800 l 1
 1000 700 l 1
 1000 600 l 1
 900 600 l 1
 800 600 l 1
 800 700 l 1
0 700 m 1
 0 800 l 1
 300 800 l 1
 600 800 l 1
 600 500 l 1
 600 200 l 1
 500 200 l 1
 400 200 l 1
 400 400 l 1
 400 600 l 1
 200 600 l 1
 0 600 l 1
 0 700 l 1
EndSplineSet
Validated: 1
EndChar

StartChar: less
Encoding: 60 60 53
Width: 1200
VWidth: 1000
Flags: HW
LayerCount: 2
Back
Fore
SplineSet
800 700 m 1
 800 800 l 1
 900 800 l 1
 1000 800 l 1
 1000 700 l 1
 1000 600 l 1
 900 600 l 1
 800 600 l 1
 800 700 l 1
400 500 m 1
 400 800 l 1
 500 800 l 1
 600 800 l 1
 600 600 l 1
 600 400 l 1
 800 400 l 1
 1000 400 l 1
 1000 300 l 1
 1000 200 l 1
 700 200 l 1
 400 200 l 1
 400 500 l 1
0 300 m 1
 0 800 l 1
 100 800 l 1
 200 800 l 1
 200 400 l 1
 200 0 l 1
 600 0 l 1
 1000 0 l 1
 1000 -100 l 1
 1000 -200 l 1
 500 -200 l 1
 0 -200 l 1
 0 300 l 1
EndSplineSet
Validated: 1
EndChar

StartChar: equal
Encoding: 61 61 54
Width: 1200
VWidth: 1000
Flags: HW
LayerCount: 2
Back
Fore
SplineSet
0 -100 m 1
 0 0 l 1
 500 0 l 1
 1000 0 l 1
 1000 -100 l 1
 1000 -200 l 1
 500 -200 l 1
 0 -200 l 1
 0 -100 l 1
400 300 m 1
 400 400 l 1
 700 400 l 1
 1000 400 l 1
 1000 300 l 1
 1000 200 l 1
 700 200 l 1
 400 200 l 1
 400 300 l 1
0 300 m 1
 0 400 l 1
 100 400 l 1
 200 400 l 1
 200 300 l 1
 200 200 l 1
 100 200 l 1
 0 200 l 1
 0 300 l 1
0 700 m 1
 0 800 l 1
 500 800 l 1
 1000 800 l 1
 1000 700 l 1
 1000 600 l 1
 500 600 l 1
 0 600 l 1
 0 700 l 1
EndSplineSet
Validated: 1
EndChar

StartChar: greater
Encoding: 62 62 55
Width: 1200
VWidth: 1000
Flags: HW
LayerCount: 2
Back
Fore
SplineSet
800 400 m 1
 800 800 l 1
 900 800 l 1
 1000 800 l 1
 1000 300 l 1
 1000 -200 l 1
 500 -200 l 1
 0 -200 l 1
 0 -100 l 1
 0 0 l 1
 400 0 l 1
 800 0 l 1
 800 400 l 1
400 600 m 1
 400 800 l 1
 500 800 l 1
 600 800 l 1
 600 500 l 1
 600 200 l 1
 300 200 l 1
 0 200 l 1
 0 300 l 1
 0 400 l 1
 200 400 l 1
 400 400 l 1
 400 600 l 1
0 700 m 1
 0 800 l 1
 100 800 l 1
 200 800 l 1
 200 700 l 1
 200 600 l 1
 100 600 l 1
 0 600 l 1
 0 700 l 1
EndSplineSet
Validated: 1
EndChar

StartChar: question
Encoding: 63 63 56
Width: 1200
VWidth: 1000
Flags: HW
LayerCount: 2
Back
Fore
SplineSet
800 -100 m 1
 800 0 l 1
 900 0 l 1
 1000 0 l 1
 1000 -100 l 1
 1000 -200 l 1
 900 -200 l 1
 800 -200 l 1
 800 -100 l 1
400 -100 m 1
 400 0 l 1
 500 0 l 1
 600 0 l 1
 600 -100 l 1
 600 -200 l 1
 500 -200 l 1
 400 -200 l 1
 400 -100 l 1
0 -100 m 1
 0 0 l 1
 100 0 l 1
 200 0 l 1
 200 -100 l 1
 200 -200 l 1
 100 -200 l 1
 0 -200 l 1
 0 -100 l 1
0 500 m 1
 0 800 l 1
 500 800 l 1
 1000 800 l 1
 1000 500 l 1
 1000 200 l 1
 700 200 l 1
 400 200 l 1
 400 300 l 1
 400 400 l 1
 600 400 l 1
 800 400 l 1
 800 500 l 1
 800 600 l 1
 500 600 l 1
 200 600 l 1
 200 400 l 1
 200 200 l 1
 100 200 l 1
 0 200 l 1
 0 500 l 1
EndSplineSet
Validated: 1
EndChar

StartChar: at
Encoding: 64 64 57
Width: 1200
VWidth: 1000
Flags: HW
LayerCount: 2
Back
Fore
SplineSet
0 300 m 1
 0 800 l 1
 500 800 l 1
 1000 800 l 1
 1000 300 l 1
 1000 -200 l 1
 700 -200 l 1
 400 -200 l 1
 400 100 l 1
 400 400 l 1
 600 400 l 1
 800 400 l 1
 800 500 l 1
 800 600 l 1
 500 600 l 1
 200 600 l 1
 200 200 l 1
 200 -200 l 1
 100 -200 l 1
 0 -200 l 1
 0 300 l 1
800 100 m 1
 800 200 l 1
 700 200 l 1
 600 200 l 1
 600 100 l 1
 600 0 l 1
 700 0 l 1
 800 0 l 1
 800 100 l 1
EndSplineSet
Validated: 1
EndChar

StartChar: bracketleft
Encoding: 91 91 58
Width: 1200
VWidth: 1000
Flags: HW
LayerCount: 2
Back
Fore
SplineSet
0 -100 m 1
 0 0 l 1
 100 0 l 1
 200 0 l 1
 200 -100 l 1
 200 -200 l 1
 100 -200 l 1
 0 -200 l 1
 0 -100 l 1
400 700 m 1
 400 800 l 1
 700 800 l 1
 1000 800 l 1
 1000 500 l 1
 1000 200 l 1
 900 200 l 1
 800 200 l 1
 800 400 l 1
 800 600 l 1
 600 600 l 1
 400 600 l 1
 400 700 l 1
0 500 m 1
 0 800 l 1
 100 800 l 1
 200 800 l 1
 200 600 l 1
 200 400 l 1
 400 400 l 1
 600 400 l 1
 600 200 l 1
 600 0 l 1
 800 0 l 1
 1000 0 l 1
 1000 -100 l 1
 1000 -200 l 1
 700 -200 l 1
 400 -200 l 1
 400 0 l 1
 400 200 l 1
 200 200 l 1
 0 200 l 1
 0 500 l 1
EndSplineSet
Validated: 1
EndChar

StartChar: backslash
Encoding: 92 92 59
Width: 1200
VWidth: 1000
Flags: HW
LayerCount: 2
Back
Fore
SplineSet
0 -100 m 1
 0 0 l 1
 100 0 l 1
 200 0 l 1
 200 -100 l 1
 200 -200 l 1
 100 -200 l 1
 0 -200 l 1
 0 -100 l 1
400 700 m 1
 400 800 l 1
 700 800 l 1
 1000 800 l 1
 1000 500 l 1
 1000 200 l 1
 900 200 l 1
 800 200 l 1
 800 400 l 1
 800 600 l 1
 600 600 l 1
 400 600 l 1
 400 700 l 1
0 500 m 1
 0 800 l 1
 100 800 l 1
 200 800 l 1
 200 600 l 1
 200 400 l 1
 400 400 l 1
 600 400 l 1
 600 200 l 1
 600 0 l 1
 800 0 l 1
 1000 0 l 1
 1000 -100 l 1
 1000 -200 l 1
 700 -200 l 1
 400 -200 l 1
 400 0 l 1
 400 200 l 1
 200 200 l 1
 0 200 l 1
 0 500 l 1
EndSplineSet
Validated: 1
EndChar

StartChar: bracketright
Encoding: 93 93 60
Width: 1200
VWidth: 1000
Flags: HW
LayerCount: 2
Back
Fore
SplineSet
400 700 m 1
 400 800 l 1
 700 800 l 1
 1000 800 l 1
 1000 300 l 1
 1000 -200 l 1
 700 -200 l 1
 400 -200 l 1
 400 -100 l 1
 400 0 l 1
 600 0 l 1
 800 0 l 1
 800 300 l 1
 800 600 l 1
 600 600 l 1
 400 600 l 1
 400 700 l 1
0 300 m 1
 0 800 l 1
 100 800 l 1
 200 800 l 1
 200 600 l 1
 200 400 l 1
 400 400 l 1
 600 400 l 1
 600 300 l 1
 600 200 l 1
 400 200 l 1
 200 200 l 1
 200 0 l 1
 200 -200 l 1
 100 -200 l 1
 0 -200 l 1
 0 300 l 1
EndSplineSet
Validated: 1
EndChar

StartChar: asciicircum
Encoding: 94 94 61
Width: 1200
VWidth: 1000
Flags: HW
LayerCount: 2
Back
Fore
SplineSet
0 -100 m 1
 0 0 l 1
 500 0 l 1
 1000 0 l 1
 1000 -100 l 1
 1000 -200 l 1
 500 -200 l 1
 0 -200 l 1
 0 -100 l 1
800 700 m 1
 800 800 l 1
 900 800 l 1
 1000 800 l 1
 1000 700 l 1
 1000 600 l 1
 900 600 l 1
 800 600 l 1
 800 700 l 1
400 600 m 1
 400 800 l 1
 500 800 l 1
 600 800 l 1
 600 600 l 1
 600 400 l 1
 800 400 l 1
 1000 400 l 1
 1000 300 l 1
 1000 200 l 1
 500 200 l 1
 0 200 l 1
 0 300 l 1
 0 400 l 1
 200 400 l 1
 400 400 l 1
 400 600 l 1
0 700 m 1
 0 800 l 1
 100 800 l 1
 200 800 l 1
 200 700 l 1
 200 600 l 1
 100 600 l 1
 0 600 l 1
 0 700 l 1
EndSplineSet
Validated: 1
EndChar

StartChar: underscore
Encoding: 95 95 62
Width: 1200
VWidth: 1000
Flags: HW
LayerCount: 2
Back
Fore
SplineSet
0 -100 m 1
 0 0 l 1
 500 0 l 1
 1000 0 l 1
 1000 -100 l 1
 1000 -200 l 1
 500 -200 l 1
 0 -200 l 1
 0 -100 l 1
EndSplineSet
Validated: 1
EndChar

StartChar: grave
Encoding: 96 96 63
Width: 1200
VWidth: 1000
Flags: HW
LayerCount: 2
Back
Fore
SplineSet
800 200 m 1
 800 400 l 1
 900 400 l 1
 1000 400 l 1
 1000 100 l 1
 1000 -200 l 1
 500 -200 l 1
 0 -200 l 1
 0 -100 l 1
 0 0 l 1
 400 0 l 1
 800 0 l 1
 800 200 l 1
400 700 m 1
 400 800 l 1
 700 800 l 1
 1000 800 l 1
 1000 700 l 1
 1000 600 l 1
 700 600 l 1
 400 600 l 1
 400 700 l 1
0 500 m 1
 0 800 l 1
 100 800 l 1
 200 800 l 1
 200 600 l 1
 200 400 l 1
 400 400 l 1
 600 400 l 1
 600 300 l 1
 600 200 l 1
 300 200 l 1
 0 200 l 1
 0 500 l 1
EndSplineSet
Validated: 1
EndChar

StartChar: braceleft
Encoding: 123 123 64
Width: 1200
VWidth: 1000
Flags: HW
LayerCount: 2
Back
Fore
SplineSet
0 -100 m 1
 0 0 l 1
 100 0 l 1
 200 0 l 1
 200 -100 l 1
 200 -200 l 1
 100 -200 l 1
 0 -200 l 1
 0 -100 l 1
800 300 m 1
 800 400 l 1
 900 400 l 1
 1000 400 l 1
 1000 300 l 1
 1000 200 l 1
 900 200 l 1
 800 200 l 1
 800 300 l 1
400 600 m 1
 400 800 l 1
 700 800 l 1
 1000 800 l 1
 1000 700 l 1
 1000 600 l 1
 800 600 l 1
 600 600 l 1
 600 300 l 1
 600 0 l 1
 800 0 l 1
 1000 0 l 1
 1000 -100 l 1
 1000 -200 l 1
 700 -200 l 1
 400 -200 l 1
 400 0 l 1
 400 200 l 1
 200 200 l 1
 0 200 l 1
 0 300 l 1
 0 400 l 1
 200 400 l 1
 400 400 l 1
 400 600 l 1
0 700 m 1
 0 800 l 1
 100 800 l 1
 200 800 l 1
 200 700 l 1
 200 600 l 1
 100 600 l 1
 0 600 l 1
 0 700 l 1
EndSplineSet
Validated: 1
EndChar

StartChar: bar
Encoding: 124 124 65
Width: 1200
VWidth: 1000
Flags: HW
LayerCount: 2
Back
Fore
SplineSet
800 -100 m 1
 800 0 l 1
 900 0 l 1
 1000 0 l 1
 1000 -100 l 1
 1000 -200 l 1
 900 -200 l 1
 800 -200 l 1
 800 -100 l 1
0 100 m 1
 0 400 l 1
 100 400 l 1
 200 400 l 1
 200 100 l 1
 200 -200 l 1
 100 -200 l 1
 0 -200 l 1
 0 100 l 1
800 500 m 1
 800 800 l 1
 900 800 l 1
 1000 800 l 1
 1000 500 l 1
 1000 200 l 1
 900 200 l 1
 800 200 l 1
 800 500 l 1
400 300 m 1
 400 800 l 1
 500 800 l 1
 600 800 l 1
 600 300 l 1
 600 -200 l 1
 500 -200 l 1
 400 -200 l 1
 400 300 l 1
0 700 m 1
 0 800 l 1
 100 800 l 1
 200 800 l 1
 200 700 l 1
 200 600 l 1
 100 600 l 1
 0 600 l 1
 0 700 l 1
EndSplineSet
Validated: 1
EndChar

StartChar: braceright
Encoding: 125 125 66
Width: 1200
VWidth: 1000
Flags: HW
LayerCount: 2
Back
Fore
SplineSet
800 -100 m 1
 800 0 l 1
 900 0 l 1
 1000 0 l 1
 1000 -100 l 1
 1000 -200 l 1
 900 -200 l 1
 800 -200 l 1
 800 -100 l 1
0 300 m 1
 0 400 l 1
 100 400 l 1
 200 400 l 1
 200 300 l 1
 200 200 l 1
 100 200 l 1
 0 200 l 1
 0 300 l 1
800 700 m 1
 800 800 l 1
 900 800 l 1
 1000 800 l 1
 1000 700 l 1
 1000 600 l 1
 900 600 l 1
 800 600 l 1
 800 700 l 1
0 700 m 1
 0 800 l 1
 300 800 l 1
 600 800 l 1
 600 600 l 1
 600 400 l 1
 800 400 l 1
 1000 400 l 1
 1000 300 l 1
 1000 200 l 1
 800 200 l 1
 600 200 l 1
 600 0 l 1
 600 -200 l 1
 300 -200 l 1
 0 -200 l 1
 0 -100 l 1
 0 0 l 1
 200 0 l 1
 400 0 l 1
 400 300 l 1
 400 600 l 1
 200 600 l 1
 0 600 l 1
 0 700 l 1
EndSplineSet
Validated: 1
EndChar

StartChar: asciitilde
Encoding: 126 126 67
Width: 1200
VWidth: 1000
Flags: HW
LayerCount: 2
Back
Fore
SplineSet
0 -100 m 1
 0 0 l 1
 500 0 l 1
 1000 0 l 1
 1000 -100 l 1
 1000 -200 l 1
 500 -200 l 1
 0 -200 l 1
 0 -100 l 1
0 500 m 1
 0 800 l 1
 300 800 l 1
 600 800 l 1
 600 600 l 1
 600 400 l 1
 700 400 l 1
 800 400 l 1
 800 600 l 1
 800 800 l 1
 900 800 l 1
 1000 800 l 1
 1000 500 l 1
 1000 200 l 1
 700 200 l 1
 400 200 l 1
 400 400 l 1
 400 600 l 1
 300 600 l 1
 200 600 l 1
 200 400 l 1
 200 200 l 1
 100 200 l 1
 0 200 l 1
 0 500 l 1
EndSplineSet
Validated: 1
EndChar

StartChar: uni007F
Encoding: 127 127 68
Width: 1200
VWidth: 1000
Flags: HW
LayerCount: 2
Back
Fore
SplineSet
800 0 m 1
 800 200 l 1
 900 200 l 1
 1000 200 l 1
 1000 0 l 1
 1000 -200 l 1
 900 -200 l 1
 800 -200 l 1
 800 0 l 1
600 700 m 1
 600 800 l 1
 700 800 l 1
 800 800 l 1
 800 700 l 1
 800 600 l 1
 900 600 l 1
 1000 600 l 1
 1000 500 l 1
 1000 400 l 1
 900 400 l 1
 800 400 l 1
 800 500 l 1
 800 600 l 1
 700 600 l 1
 600 600 l 1
 600 400 l 1
 600 200 l 1
 500 200 l 1
 400 200 l 1
 400 100 l 1
 400 0 l 1
 500 0 l 1
 600 0 l 1
 600 -100 l 1
 600 -200 l 1
 400 -200 l 1
 200 -200 l 1
 200 -100 l 1
 200 0 l 1
 100 0 l 1
 0 0 l 1
 0 100 l 1
 0 200 l 1
 100 200 l 1
 200 200 l 1
 200 300 l 1
 200 400 l 1
 300 400 l 1
 400 400 l 1
 400 500 l 1
 400 600 l 1
 500 600 l 1
 600 600 l 1
 600 700 l 1
0 700 m 1
 0 800 l 1
 100 800 l 1
 200 800 l 1
 200 700 l 1
 200 600 l 1
 100 600 l 1
 0 600 l 1
 0 700 l 1
EndSplineSet
Validated: 5
EndChar

StartChar: a
Encoding: 97 97 69
Width: 1200
VWidth: 1000
Flags: HW
LayerCount: 2
Back
Fore
SplineSet
0 300 m 1
 0 800 l 1
 500 800 l 1
 1000 800 l 1
 1000 300 l 1
 1000 -200 l 1
 900 -200 l 1
 800 -200 l 1
 800 0 l 1
 800 200 l 1
 600 200 l 1
 400 200 l 1
 400 300 l 1
 400 400 l 1
 600 400 l 1
 800 400 l 1
 800 500 l 1
 800 600 l 1
 500 600 l 1
 200 600 l 1
 200 200 l 1
 200 -200 l 1
 100 -200 l 1
 0 -200 l 1
 0 300 l 1
EndSplineSet
Validated: 1
EndChar

StartChar: b
Encoding: 98 98 70
Width: 1200
VWidth: 1000
Flags: HW
LayerCount: 2
Back
Fore
SplineSet
0 300 m 1
 0 800 l 1
 100 800 l 1
 200 800 l 1
 200 600 l 1
 200 400 l 1
 600 400 l 1
 1000 400 l 1
 1000 100 l 1
 1000 -200 l 1
 500 -200 l 1
 0 -200 l 1
 0 300 l 1
800 100 m 1
 800 200 l 1
 500 200 l 1
 200 200 l 1
 200 100 l 1
 200 0 l 1
 500 0 l 1
 800 0 l 1
 800 100 l 1
EndSplineSet
Validated: 1
EndChar

StartChar: c
Encoding: 99 99 71
Width: 1200
VWidth: 1000
Flags: HW
LayerCount: 2
Back
Fore
SplineSet
0 300 m 1
 0 800 l 1
 500 800 l 1
 1000 800 l 1
 1000 700 l 1
 1000 600 l 1
 600 600 l 1
 200 600 l 1
 200 300 l 1
 200 0 l 1
 600 0 l 1
 1000 0 l 1
 1000 -100 l 1
 1000 -200 l 1
 500 -200 l 1
 0 -200 l 1
 0 300 l 1
EndSplineSet
Validated: 1
EndChar

StartChar: d
Encoding: 100 100 72
Width: 1200
VWidth: 1000
Flags: HW
LayerCount: 2
Back
Fore
SplineSet
800 600 m 1
 800 800 l 1
 900 800 l 1
 1000 800 l 1
 1000 300 l 1
 1000 -200 l 1
 500 -200 l 1
 0 -200 l 1
 0 100 l 1
 0 400 l 1
 400 400 l 1
 800 400 l 1
 800 600 l 1
800 100 m 1
 800 200 l 1
 500 200 l 1
 200 200 l 1
 200 100 l 1
 200 0 l 1
 500 0 l 1
 800 0 l 1
 800 100 l 1
EndSplineSet
Validated: 1
EndChar

StartChar: e
Encoding: 101 101 73
Width: 1200
VWidth: 1000
Flags: HW
LayerCount: 2
Back
Fore
SplineSet
0 300 m 1
 0 800 l 1
 500 800 l 1
 1000 800 l 1
 1000 700 l 1
 1000 600 l 1
 600 600 l 1
 200 600 l 1
 200 500 l 1
 200 400 l 1
 400 400 l 1
 600 400 l 1
 600 300 l 1
 600 200 l 1
 400 200 l 1
 200 200 l 1
 200 100 l 1
 200 0 l 1
 600 0 l 1
 1000 0 l 1
 1000 -100 l 1
 1000 -200 l 1
 500 -200 l 1
 0 -200 l 1
 0 300 l 1
EndSplineSet
Validated: 1
EndChar

StartChar: f
Encoding: 102 102 74
Width: 1200
VWidth: 1000
Flags: HW
LayerCount: 2
Back
Fore
SplineSet
400 600 m 1
 400 800 l 1
 700 800 l 1
 1000 800 l 1
 1000 700 l 1
 1000 600 l 1
 800 600 l 1
 600 600 l 1
 600 500 l 1
 600 400 l 1
 800 400 l 1
 1000 400 l 1
 1000 300 l 1
 1000 200 l 1
 800 200 l 1
 600 200 l 1
 600 0 l 1
 600 -200 l 1
 300 -200 l 1
 0 -200 l 1
 0 -100 l 1
 0 0 l 1
 200 0 l 1
 400 0 l 1
 400 100 l 1
 400 200 l 1
 200 200 l 1
 0 200 l 1
 0 300 l 1
 0 400 l 1
 200 400 l 1
 400 400 l 1
 400 600 l 1
EndSplineSet
Validated: 1
EndChar

StartChar: g
Encoding: 103 103 75
Width: 1200
VWidth: 1000
Flags: HW
LayerCount: 2
Back
Fore
SplineSet
0 500 m 1
 0 800 l 1
 500 800 l 1
 1000 800 l 1
 1000 300 l 1
 1000 -200 l 1
 500 -200 l 1
 0 -200 l 1
 0 -100 l 1
 0 0 l 1
 400 0 l 1
 800 0 l 1
 800 100 l 1
 800 200 l 1
 400 200 l 1
 0 200 l 1
 0 500 l 1
800 500 m 1
 800 600 l 1
 500 600 l 1
 200 600 l 1
 200 500 l 1
 200 400 l 1
 500 400 l 1
 800 400 l 1
 800 500 l 1
EndSplineSet
Validated: 1
EndChar

StartChar: h
Encoding: 104 104 76
Width: 1200
VWidth: 1000
Flags: HW
LayerCount: 2
Back
Fore
SplineSet
0 300 m 1
 0 800 l 1
 100 800 l 1
 200 800 l 1
 200 600 l 1
 200 400 l 1
 600 400 l 1
 1000 400 l 1
 1000 100 l 1
 1000 -200 l 1
 900 -200 l 1
 800 -200 l 1
 800 0 l 1
 800 200 l 1
 500 200 l 1
 200 200 l 1
 200 0 l 1
 200 -200 l 1
 100 -200 l 1
 0 -200 l 1
 0 300 l 1
EndSplineSet
Validated: 1
EndChar

StartChar: i
Encoding: 105 105 77
Width: 1200
VWidth: 1000
Flags: HW
LayerCount: 2
Back
Fore
SplineSet
400 100 m 1
 400 400 l 1
 500 400 l 1
 600 400 l 1
 600 100 l 1
 600 -200 l 1
 500 -200 l 1
 400 -200 l 1
 400 100 l 1
400 700 m 1
 400 800 l 1
 500 800 l 1
 600 800 l 1
 600 700 l 1
 600 600 l 1
 500 600 l 1
 400 600 l 1
 400 700 l 1
EndSplineSet
EndChar

StartChar: j
Encoding: 106 106 78
Width: 1200
VWidth: 1000
Flags: HW
LayerCount: 2
Back
Fore
SplineSet
800 200 m 1
 800 400 l 1
 900 400 l 1
 1000 400 l 1
 1000 100 l 1
 1000 -200 l 1
 500 -200 l 1
 0 -200 l 1
 0 -100 l 1
 0 0 l 1
 400 0 l 1
 800 0 l 1
 800 200 l 1
800 700 m 1
 800 800 l 1
 900 800 l 1
 1000 800 l 1
 1000 700 l 1
 1000 600 l 1
 900 600 l 1
 800 600 l 1
 800 700 l 1
EndSplineSet
Validated: 1
EndChar

StartChar: k
Encoding: 107 107 79
Width: 1200
VWidth: 1000
Flags: HW
LayerCount: 2
Back
Fore
SplineSet
0 300 m 1
 0 800 l 1
 100 800 l 1
 200 800 l 1
 200 600 l 1
 200 400 l 1
 300 400 l 1
 400 400 l 1
 400 600 l 1
 400 800 l 1
 700 800 l 1
 1000 800 l 1
 1000 700 l 1
 1000 600 l 1
 800 600 l 1
 600 600 l 1
 600 300 l 1
 600 0 l 1
 800 0 l 1
 1000 0 l 1
 1000 -100 l 1
 1000 -200 l 1
 700 -200 l 1
 400 -200 l 1
 400 0 l 1
 400 200 l 1
 300 200 l 1
 200 200 l 1
 200 0 l 1
 200 -200 l 1
 100 -200 l 1
 0 -200 l 1
 0 300 l 1
EndSplineSet
Validated: 1
EndChar

StartChar: l
Encoding: 108 108 80
Width: 1200
VWidth: 1000
Flags: HW
LayerCount: 2
Back
Fore
SplineSet
0 300 m 1
 0 800 l 1
 100 800 l 1
 200 800 l 1
 200 400 l 1
 200 0 l 1
 600 0 l 1
 1000 0 l 1
 1000 -100 l 1
 1000 -200 l 1
 500 -200 l 1
 0 -200 l 1
 0 300 l 1
EndSplineSet
Validated: 1
EndChar

StartChar: m
Encoding: 109 109 81
Width: 1200
VWidth: 1000
Flags: HW
LayerCount: 2
Back
Fore
SplineSet
0 300 m 1
 0 800 l 1
 500 800 l 1
 1000 800 l 1
 1000 300 l 1
 1000 -200 l 1
 900 -200 l 1
 800 -200 l 1
 800 200 l 1
 800 600 l 1
 700 600 l 1
 600 600 l 1
 600 400 l 1
 600 200 l 1
 500 200 l 1
 400 200 l 1
 400 400 l 1
 400 600 l 1
 300 600 l 1
 200 600 l 1
 200 200 l 1
 200 -200 l 1
 100 -200 l 1
 0 -200 l 1
 0 300 l 1
EndSplineSet
Validated: 1
EndChar

StartChar: n
Encoding: 110 110 82
Width: 1200
VWidth: 1000
Flags: HW
LayerCount: 2
Back
Fore
SplineSet
0 300 m 1
 0 800 l 1
 500 800 l 1
 1000 800 l 1
 1000 300 l 1
 1000 -200 l 1
 900 -200 l 1
 800 -200 l 1
 800 200 l 1
 800 600 l 1
 500 600 l 1
 200 600 l 1
 200 200 l 1
 200 -200 l 1
 100 -200 l 1
 0 -200 l 1
 0 300 l 1
EndSplineSet
Validated: 1
EndChar

StartChar: o
Encoding: 111 111 83
Width: 1200
VWidth: 1000
Flags: HW
LayerCount: 2
Back
Fore
SplineSet
0 300 m 1
 0 800 l 1
 500 800 l 1
 1000 800 l 1
 1000 300 l 1
 1000 -200 l 1
 500 -200 l 1
 0 -200 l 1
 0 300 l 1
800 300 m 1
 800 600 l 1
 500 600 l 1
 200 600 l 1
 200 300 l 1
 200 0 l 1
 500 0 l 1
 800 0 l 1
 800 300 l 1
EndSplineSet
Validated: 1
EndChar

StartChar: p
Encoding: 112 112 84
Width: 1200
VWidth: 1000
Flags: HW
LayerCount: 2
Back
Fore
SplineSet
0 300 m 1
 0 800 l 1
 500 800 l 1
 1000 800 l 1
 1000 500 l 1
 1000 200 l 1
 600 200 l 1
 200 200 l 1
 200 0 l 1
 200 -200 l 1
 100 -200 l 1
 0 -200 l 1
 0 300 l 1
800 500 m 1
 800 600 l 1
 500 600 l 1
 200 600 l 1
 200 500 l 1
 200 400 l 1
 500 400 l 1
 800 400 l 1
 800 500 l 1
EndSplineSet
Validated: 1
EndChar

StartChar: q
Encoding: 113 113 85
Width: 1200
VWidth: 1000
Flags: HW
LayerCount: 2
Back
Fore
SplineSet
0 500 m 1
 0 800 l 1
 500 800 l 1
 1000 800 l 1
 1000 300 l 1
 1000 -200 l 1
 900 -200 l 1
 800 -200 l 1
 800 0 l 1
 800 200 l 1
 400 200 l 1
 0 200 l 1
 0 500 l 1
800 500 m 1
 800 600 l 1
 500 600 l 1
 200 600 l 1
 200 500 l 1
 200 400 l 1
 500 400 l 1
 800 400 l 1
 800 500 l 1
EndSplineSet
Validated: 1
EndChar

StartChar: r
Encoding: 114 114 86
Width: 1200
VWidth: 1000
Flags: HW
LayerCount: 2
Back
Fore
SplineSet
0 300 m 1
 0 800 l 1
 500 800 l 1
 1000 800 l 1
 1000 700 l 1
 1000 600 l 1
 600 600 l 1
 200 600 l 1
 200 200 l 1
 200 -200 l 1
 100 -200 l 1
 0 -200 l 1
 0 300 l 1
EndSplineSet
Validated: 1
EndChar

StartChar: s
Encoding: 115 115 87
Width: 1200
VWidth: 1000
Flags: HW
LayerCount: 2
Back
Fore
SplineSet
0 500 m 1
 0 800 l 1
 300 800 l 1
 600 800 l 1
 600 700 l 1
 600 600 l 1
 400 600 l 1
 200 600 l 1
 200 500 l 1
 200 400 l 1
 600 400 l 1
 1000 400 l 1
 1000 100 l 1
 1000 -200 l 1
 700 -200 l 1
 400 -200 l 1
 400 -100 l 1
 400 0 l 1
 600 0 l 1
 800 0 l 1
 800 100 l 1
 800 200 l 1
 400 200 l 1
 0 200 l 1
 0 500 l 1
EndSplineSet
Validated: 1
EndChar

StartChar: t
Encoding: 116 116 88
Width: 1200
VWidth: 1000
Flags: HW
LayerCount: 2
Back
Fore
SplineSet
400 600 m 1
 400 800 l 1
 500 800 l 1
 600 800 l 1
 600 600 l 1
 600 400 l 1
 800 400 l 1
 1000 400 l 1
 1000 300 l 1
 1000 200 l 1
 800 200 l 1
 600 200 l 1
 600 100 l 1
 600 0 l 1
 800 0 l 1
 1000 0 l 1
 1000 -100 l 1
 1000 -200 l 1
 700 -200 l 1
 400 -200 l 1
 400 0 l 1
 400 200 l 1
 200 200 l 1
 0 200 l 1
 0 300 l 1
 0 400 l 1
 200 400 l 1
 400 400 l 1
 400 600 l 1
EndSplineSet
Validated: 1
EndChar

StartChar: u
Encoding: 117 117 89
Width: 1200
VWidth: 1000
Flags: HW
LayerCount: 2
Back
Fore
SplineSet
0 300 m 1
 0 800 l 1
 100 800 l 1
 200 800 l 1
 200 400 l 1
 200 0 l 1
 500 0 l 1
 800 0 l 1
 800 400 l 1
 800 800 l 1
 900 800 l 1
 1000 800 l 1
 1000 300 l 1
 1000 -200 l 1
 500 -200 l 1
 0 -200 l 1
 0 300 l 1
EndSplineSet
Validated: 1
EndChar

StartChar: v
Encoding: 118 118 90
Width: 1200
VWidth: 1000
Flags: HW
LayerCount: 2
Back
Fore
SplineSet
0 300 m 1
 0 800 l 1
 100 800 l 1
 200 800 l 1
 200 400 l 1
 200 0 l 1
 300 0 l 1
 400 0 l 1
 400 200 l 1
 400 400 l 1
 600 400 l 1
 800 400 l 1
 800 600 l 1
 800 800 l 1
 900 800 l 1
 1000 800 l 1
 1000 500 l 1
 1000 200 l 1
 800 200 l 1
 600 200 l 1
 600 0 l 1
 600 -200 l 1
 300 -200 l 1
 0 -200 l 1
 0 300 l 1
EndSplineSet
Validated: 1
EndChar

StartChar: w
Encoding: 119 119 91
Width: 1200
VWidth: 1000
Flags: HW
LayerCount: 2
Back
Fore
SplineSet
0 300 m 1
 0 800 l 1
 100 800 l 1
 200 800 l 1
 200 400 l 1
 200 0 l 1
 300 0 l 1
 400 0 l 1
 400 200 l 1
 400 400 l 1
 500 400 l 1
 600 400 l 1
 600 200 l 1
 600 0 l 1
 700 0 l 1
 800 0 l 1
 800 400 l 1
 800 800 l 1
 900 800 l 1
 1000 800 l 1
 1000 300 l 1
 1000 -200 l 1
 500 -200 l 1
 0 -200 l 1
 0 300 l 1
EndSplineSet
Validated: 1
EndChar

StartChar: x
Encoding: 120 120 92
Width: 1200
VWidth: 1000
Flags: HW
LayerCount: 2
Back
Fore
SplineSet
0 700 m 1
 0 800 l 1
 300 800 l 1
 600 800 l 1
 600 600 l 1
 600 400 l 1
 800 400 l 1
 1000 400 l 1
 1000 300 l 1
 1000 200 l 1
 800 200 l 1
 600 200 l 1
 600 100 l 1
 600 0 l 1
 800 0 l 1
 1000 0 l 1
 1000 -100 l 1
 1000 -200 l 1
 700 -200 l 1
 400 -200 l 1
 400 0 l 1
 400 200 l 1
 200 200 l 1
 0 200 l 1
 0 300 l 1
 0 400 l 1
 200 400 l 1
 400 400 l 1
 400 500 l 1
 400 600 l 1
 200 600 l 1
 0 600 l 1
 0 700 l 1
EndSplineSet
Validated: 1
EndChar

StartChar: y
Encoding: 121 121 93
Width: 1200
VWidth: 1000
Flags: HW
LayerCount: 2
Back
Fore
SplineSet
0 500 m 1
 0 800 l 1
 100 800 l 1
 200 800 l 1
 200 600 l 1
 200 400 l 1
 500 400 l 1
 800 400 l 1
 800 600 l 1
 800 800 l 1
 900 800 l 1
 1000 800 l 1
 1000 300 l 1
 1000 -200 l 1
 500 -200 l 1
 0 -200 l 1
 0 -100 l 1
 0 0 l 1
 400 0 l 1
 800 0 l 1
 800 100 l 1
 800 200 l 1
 400 200 l 1
 0 200 l 1
 0 500 l 1
EndSplineSet
Validated: 1
EndChar

StartChar: z
Encoding: 122 122 94
Width: 1200
VWidth: 1000
Flags: HW
LayerCount: 2
Back
Fore
SplineSet
400 700 m 1
 400 800 l 1
 700 800 l 1
 1000 800 l 1
 1000 500 l 1
 1000 200 l 1
 600 200 l 1
 200 200 l 1
 200 100 l 1
 200 0 l 1
 400 0 l 1
 600 0 l 1
 600 -100 l 1
 600 -200 l 1
 300 -200 l 1
 0 -200 l 1
 0 100 l 1
 0 400 l 1
 400 400 l 1
 800 400 l 1
 800 500 l 1
 800 600 l 1
 600 600 l 1
 400 600 l 1
 400 700 l 1
EndSplineSet
Validated: 1
EndChar

